<?xml version="1.0" encoding="UTF-8"?>
<svg width="25px" height="22px" viewBox="0 0 25 22" version="1.1" xmlns="http://www.w3.org/2000/svg" xmlns:xlink="http://www.w3.org/1999/xlink">
    <title>Tick</title>
    <defs>
        <path d="M0.150395904,13.1032945 C0.653482735,14.2733556 1.81800643,16.9847384 2.93596371,17.3107293 C3.31564045,17.4216276 3.7208712,17.2987352 4.10060851,17.2202514 C6.7476276,14.8686272 8.25797807,3.95955868 13.1539309,0.673693922 C12.5710333,0.300772691 10.7238786,0.156229578 9.95338311,0.14731096 C9.11985035,0.179048937 8.24937933,0.417022258 7.59145463,0.772167762 C6.21753346,1.51370469 5.16188677,2.74902549 4.34367429,4.09481413 C3.31854707,5.78061738 2.6812109,7.34598854 1.9124109,9.16237266 C1.74467492,9.55835928 0.419197353,12.8464383 0.150395904,13.1032945" id="path-1"></path>
        <linearGradient x1="46.5765934%" y1="15.2467214%" x2="27.7489872%" y2="108.682262%" id="linearGradient-3">
            <stop stop-color="#48A146" offset="0%"></stop>
            <stop stop-color="#A5CD38" offset="100%"></stop>
        </linearGradient>
        <path d="M5.24253782,8.95698856 C5.77263868,9.6339405 6.52372223,10.2350343 7.33442143,10.5334096 C8.03245196,10.7902563 8.72686384,10.8280366 9.53406706,10.7467048 C11.1389055,10.5849931 12.0885239,9.69415103 12.745216,8.91920824 C12.4541298,8.96579405 12.0904252,9.10168421 11.565599,9.00672769 C10.4332697,8.69139588 9.25377539,6.06866819 8.74422107,4.93686499 C7.74486166,3.26197712 7.24732861,1.81174828 5.44738994,0.718201373 C4.31119667,0.0279221968 2.93862614,0.0225080092 1.66756167,0.378356979 C1.20038844,0.509070938 0.355097451,0.780434783 0.056405888,1.03912586 C0.824662669,1.83031121 0.921323429,1.80918993 1.63830585,2.8219405 C3.00186043,4.74742792 3.75815728,7.0616659 5.24253782,8.95698856 Z" id="path-4"></path>
        <linearGradient x1="60.7814041%" y1="68.690482%" x2="17.3271012%" y2="11.8762571%" id="linearGradient-6">
            <stop stop-color="#48A146" offset="0%"></stop>
            <stop stop-color="#A5CD38" offset="100%"></stop>
        </linearGradient>
    </defs>
    <g id="Page-1" stroke="none" stroke-width="1" fill="none" fill-rule="evenodd">
        <g id="Tickbox" transform="translate(0.666667, 0.333333)">
            <g id="Tick" transform="translate(0.144928, 0.098551)">
                <g id="Group-8" transform="translate(8.260870, 0.191304)">
                    <mask id="mask-2" fill="white">
                        <use xlink:href="#path-1"></use>
                    </mask>
                    <g id="Clip-7"></g>
                    <path d="M0.150395904,13.1032945 C0.653482735,14.2733556 1.81800643,16.9847384 2.93596371,17.3107293 C3.31564045,17.4216276 3.7208712,17.2987352 4.10060851,17.2202514 C6.7476276,14.8686272 8.25797807,3.95955868 13.1539309,0.673693922 C12.5710333,0.300772691 10.7238786,0.156229578 9.95338311,0.14731096 C9.11985035,0.179048937 8.24937933,0.417022258 7.59145463,0.772167762 C6.21753346,1.51370469 5.16188677,2.74902549 4.34367429,4.09481413 C3.31854707,5.78061738 2.6812109,7.34598854 1.9124109,9.16237266 C1.74467492,9.55835928 0.419197353,12.8464383 0.150395904,13.1032945" id="Fill-6" fill="url(#linearGradient-3)" mask="url(#mask-2)"></path>
                </g>
                <g id="Group-11" transform="translate(0.000000, 8.452174)">
                    <mask id="mask-5" fill="white">
                        <use xlink:href="#path-4"></use>
                    </mask>
                    <g id="Clip-10"></g>
                    <path d="M5.24253782,8.95698856 C5.77263868,9.6339405 6.52372223,10.2350343 7.33442143,10.5334096 C8.03245196,10.7902563 8.72686384,10.8280366 9.53406706,10.7467048 C11.1389055,10.5849931 12.0885239,9.69415103 12.745216,8.91920824 C12.4541298,8.96579405 12.0904252,9.10168421 11.565599,9.00672769 C10.4332697,8.69139588 9.25377539,6.06866819 8.74422107,4.93686499 C7.74486166,3.26197712 7.24732861,1.81174828 5.44738994,0.718201373 C4.31119667,0.0279221968 2.93862614,0.0225080092 1.66756167,0.378356979 C1.20038844,0.509070938 0.355097451,0.780434783 0.056405888,1.03912586 C0.824662669,1.83031121 0.921323429,1.80918993 1.63830585,2.8219405 C3.00186043,4.74742792 3.75815728,7.0616659 5.24253782,8.95698856 Z" id="Fill-9" fill="url(#linearGradient-6)" mask="url(#mask-5)"></path>
                </g>
            </g>
        </g>
    </g>
</svg>